<?xml version="1.0" encoding="UTF-8"?>
<svg version="1.1" xmlns="http://www.w3.org/2000/svg" width="512" height="512">
<path d="M0 0 C1.56933594 1.47753906 1.56933594 1.47753906 3.234375 3.515625 C5.62189462 6.36411378 8.02903407 9.15393238 10.578125 11.859375 C11.17584717 12.49383545 11.77356934 13.1282959 12.3894043 13.78198242 C13.00340088 14.43142822 13.61739746 15.08087402 14.25 15.75 C19.65236904 21.48814337 25.01259914 27.25935409 30.328125 33.078125 C33.18877694 36.20644028 36.06115453 39.32362407 38.9375 42.4375 C39.68290039 43.24477539 39.68290039 43.24477539 40.44335938 44.06835938 C43.51251027 47.39161849 46.58444079 50.71229216 49.65771484 54.03173828 C51.15827015 55.65586309 52.65352628 57.28474367 54.1484375 58.9140625 C56.00415866 60.93378349 57.88378343 62.92545128 59.7890625 64.8984375 C60.62179687 65.77757812 61.45453125 66.65671875 62.3125 67.5625 C63.42044922 68.70912109 63.42044922 68.70912109 64.55078125 69.87890625 C66 72 66 72 65.77539062 73.94091797 C64.88073917 76.31670209 63.9160044 77.36889007 62.04296875 79.06640625 C61.43130859 79.6284375 60.81964844 80.19046875 60.18945312 80.76953125 C59.52880859 81.36121094 58.86816406 81.95289063 58.1875 82.5625 C57.50751953 83.18382812 56.82753906 83.80515625 56.12695312 84.4453125 C54.09089914 86.30390348 52.04577353 88.15212229 50 90 C47.99649623 91.82954507 45.99855393 93.66503848 44 95.5 C43.03964844 96.37785156 42.07929688 97.25570312 41.08984375 98.16015625 C37.55943252 101.39646228 34.06091361 104.66668331 30.5625 107.9375 C23.21062241 114.81108517 15.81883527 121.64035765 8.41601562 128.45898438 C1.44931264 134.87726301 -5.49324892 141.32030385 -12.41357422 147.78857422 C-16.95384801 152.02997682 -21.51372815 156.24942588 -26.08374023 160.45874023 C-30.26010919 164.30880049 -34.41358672 168.18288738 -38.5625 172.0625 C-43.98146428 177.12901132 -49.43452046 182.15491065 -54.91015625 187.16015625 C-58.44056748 190.39646228 -61.93908639 193.66668331 -65.4375 196.9375 C-72.78937759 203.81108517 -80.18116473 210.64035765 -87.58398438 217.45898438 C-93.90850462 223.28563341 -100.21710312 229.12846414 -106.5 235 C-113.8318621 241.85182202 -121.20284957 248.66033123 -128.58398438 255.45898438 C-134.90850462 261.28563341 -141.21710312 267.12846414 -147.5 273 C-154.8318621 279.85182202 -162.20284957 286.66033123 -169.58398438 293.45898438 C-175.90850462 299.28563341 -182.21710312 305.12846414 -188.5 311 C-195.8318621 317.85182202 -203.20284957 324.66033123 -210.58398438 331.45898438 C-216.90850462 337.28563341 -223.21710312 343.12846414 -229.5 349 C-236.89573489 355.91151286 -244.3301182 362.7802819 -251.77734375 369.63623047 C-252.97988182 370.74340598 -254.18219626 371.85082444 -255.38427734 372.95849609 C-256.51428806 373.99975421 -257.64479323 375.04047609 -258.77587891 376.08056641 C-261.81705327 378.87337667 -261.81705327 378.87337667 -264.6171875 381.90234375 C-266 383 -266 383 -267.98046875 382.87890625 C-270.30037492 381.8692759 -271.56789168 380.76538318 -273.3125 378.9375 C-273.91835938 378.30585938 -274.52421875 377.67421875 -275.1484375 377.0234375 C-277.54520143 374.40418915 -279.86680291 371.72512145 -282.18359375 369.03515625 C-284.05228832 366.94141459 -286.00044735 364.96873103 -288 363 C-291.27202128 359.7784145 -294.29316055 356.41407855 -297.28515625 352.93359375 C-298.96004299 351.04505403 -300.69947587 349.26844352 -302.5 347.5 C-304.93389732 345.10946833 -307.21355559 342.64953738 -309.4375 340.0625 C-311.85617779 337.25423653 -314.35899683 334.60029407 -317 332 C-320.25029983 328.79970478 -323.24724245 325.45775424 -326.21875 322 C-328.0742521 319.91662922 -330.01223101 317.95718793 -332 316 C-335.25029983 312.79970478 -338.24724245 309.45775424 -341.21875 306 C-343.0742521 303.91662922 -345.01223101 301.95718793 -347 300 C-350.25029983 296.79970478 -353.24724245 293.45775424 -356.21875 290 C-358.0742521 287.91662922 -360.01223101 285.95718793 -362 284 C-365.25029983 280.79970478 -368.24724245 277.45775424 -371.21875 274 C-373.0742521 271.91662922 -375.01223101 269.95718793 -377 268 C-380.25029983 264.79970478 -383.24724245 261.45775424 -386.21875 258 C-388.0742521 255.91662922 -390.01223101 253.95718793 -392 252 C-395.25029983 248.79970478 -398.24724245 245.45775424 -401.21875 242 C-403.0742521 239.91662922 -405.01223101 237.95718793 -407 236 C-410.25029983 232.79970478 -413.24724245 229.45775424 -416.21875 226 C-418.70257428 223.21114467 -421.36711437 220.62313017 -424.02734375 218.00390625 C-426.57210274 215.41883425 -428.91792631 212.68754939 -431.28125 209.9375 C-432.97695834 208.02597424 -434.74007689 206.22795077 -436.5625 204.4375 C-438.91656658 202.09944748 -441.25169619 199.75292214 -443.5 197.3125 C-444.0053125 196.77238281 -444.510625 196.23226562 -445.03125 195.67578125 C-446 194 -446 194 -445.96875 192.08984375 C-444.56563583 189.0629644 -442.50825201 187.44472051 -440 185.25 C-438.89978011 184.27225107 -437.80089956 183.29299365 -436.703125 182.3125 C-436.10693359 181.78269531 -435.51074219 181.25289062 -434.89648438 180.70703125 C-431.45948154 177.61337473 -428.1096109 174.42718165 -424.75 171.25 C-423.28923053 169.87221766 -421.82829178 168.49461478 -420.3671875 167.1171875 C-419.64112305 166.43237305 -418.91505859 165.74755859 -418.16699219 165.04199219 C-412.12412796 159.34770237 -406.06140418 153.6745382 -400 148 C-399.34725098 147.38850098 -398.69450195 146.77700195 -398.02197266 146.14697266 C-390.07150866 138.70067481 -382.08762403 131.29735723 -374 124 C-367.16706565 127.06663284 -362.6110944 133.39785684 -357.81640625 138.96484375 C-355.94771168 141.05858541 -353.99955265 143.03126897 -352 145 C-348.74970017 148.20029522 -345.75275755 151.54224576 -342.78125 155 C-340.9257479 157.08337078 -338.98776899 159.04281207 -337 161 C-333.74970017 164.20029522 -330.75275755 167.54224576 -327.78125 171 C-325.9257479 173.08337078 -323.98776899 175.04281207 -322 177 C-318.74970017 180.20029522 -315.75275755 183.54224576 -312.78125 187 C-310.29742572 189.78885533 -307.63288563 192.37686983 -304.97265625 194.99609375 C-302.42662171 197.58246151 -300.07978443 200.3153528 -297.71484375 203.06640625 C-296.03995701 204.95494597 -294.30052413 206.73155648 -292.5 208.5 C-290.06610268 210.89053167 -287.78644441 213.35046262 -285.5625 215.9375 C-282.52613792 219.46294053 -279.29780989 222.72478254 -275.98046875 225.984375 C-273.42326923 228.58696859 -271.07215213 231.33766345 -268.73828125 234.140625 C-266.67040428 236.35255632 -264.3961678 238.15490997 -262 240 C-261.32964722 239.36723145 -261.32964722 239.36723145 -260.64575195 238.72167969 C-252.73577056 231.25817235 -244.81921746 223.80363971 -236.81567383 216.44042969 C-232.69279636 212.64571919 -228.59329406 208.82658923 -224.5 205 C-219.32229666 200.16034615 -214.12679723 195.34094129 -208.9140625 190.5390625 C-204.76028815 186.70948518 -200.62749311 182.85787376 -196.5 179 C-189.16819943 172.14811274 -181.79714987 165.33966826 -174.41601562 158.54101562 C-167.44931264 152.12273699 -160.50675108 145.67969615 -153.58642578 139.21142578 C-149.04539508 134.9693161 -144.48458663 130.74934828 -139.9140625 126.5390625 C-135.76028815 122.70948518 -131.62749311 118.85787376 -127.5 115 C-120.16819943 108.14811274 -112.79714987 101.33966826 -105.41601562 94.54101562 C-98.44931264 88.12273699 -91.50675108 81.67969615 -84.58642578 75.21142578 C-80.04539508 70.9693161 -75.48458663 66.74934828 -70.9140625 62.5390625 C-66.76028843 58.70948543 -62.62745863 54.85791031 -58.5 51 C-53.32301042 46.16109954 -48.12851783 41.34212949 -42.91625977 36.54125977 C-38.7398898 32.69119858 -34.58653317 28.81698553 -30.4375 24.9375 C-23.99500052 18.9174054 -17.52443399 12.93130363 -11 7 C-9.80503906 5.89398438 -9.80503906 5.89398438 -8.5859375 4.765625 C-7.87695312 4.12109375 -7.16796875 3.4765625 -6.4375 2.8125 C-5.53837891 1.98685547 -5.53837891 1.98685547 -4.62109375 1.14453125 C-3 0 -3 0 0 0 Z " fill="#000000" transform="translate(446,65)"/>
</svg>
